<svg width="59" height="16" viewBox="0 0 59 16" fill="none" xmlns="http://www.w3.org/2000/svg">
<path d="M7.88 15.14C6.56 15.14 5.34667 14.8333 4.24 14.22C3.14667 13.6067 2.27333 12.7533 1.62 11.66C0.98 10.5533 0.66 9.31333 0.66 7.94C0.66 6.56667 0.98 5.33333 1.62 4.24C2.27333 3.14667 3.14667 2.29333 4.24 1.68C5.34667 1.06667 6.56 0.76 7.88 0.76C9.2 0.76 10.4067 1.06667 11.5 1.68C12.6067 2.29333 13.4733 3.14667 14.1 4.24C14.74 5.33333 15.06 6.56667 15.06 7.94C15.06 9.31333 14.74 10.5533 14.1 11.66C13.46 12.7533 12.5933 13.6067 11.5 14.22C10.4067 14.8333 9.2 15.14 7.88 15.14ZM7.88 12.02C9 12.02 9.89333 11.6467 10.56 10.9C11.24 10.1533 11.58 9.16667 11.58 7.94C11.58 6.7 11.24 5.71333 10.56 4.98C9.89333 4.23333 9 3.86 7.88 3.86C6.74667 3.86 5.84 4.22667 5.16 4.96C4.49333 5.69333 4.16 6.68667 4.16 7.94C4.16 9.18 4.49333 10.1733 5.16 10.92C5.84 11.6533 6.74667 12.02 7.88 12.02ZM20.3827 5.7C20.7827 5.08667 21.2827 4.60667 21.8827 4.26C22.4827 3.9 23.1493 3.72 23.8827 3.72V7.34H22.9427C22.0893 7.34 21.4493 7.52667 21.0227 7.9C20.596 8.26 20.3827 8.9 20.3827 9.82V15H16.9627V3.84H20.3827V5.7ZM24.8373 9.4C24.8373 8.25333 25.0507 7.24667 25.4773 6.38C25.9173 5.51333 26.5107 4.84667 27.2573 4.38C28.004 3.91333 28.8373 3.68 29.7573 3.68C30.4907 3.68 31.1573 3.83333 31.7573 4.14C32.3707 4.44667 32.8507 4.86 33.1973 5.38V0.2H36.6173V15H33.1973V13.4C32.8773 13.9333 32.4173 14.36 31.8173 14.68C31.2307 15 30.544 15.16 29.7573 15.16C28.8373 15.16 28.004 14.9267 27.2573 14.46C26.5107 13.98 25.9173 13.3067 25.4773 12.44C25.0507 11.56 24.8373 10.5467 24.8373 9.4ZM33.1973 9.42C33.1973 8.56667 32.9573 7.89333 32.4773 7.4C32.0107 6.90667 31.4373 6.66 30.7573 6.66C30.0773 6.66 29.4973 6.90667 29.0173 7.4C28.5507 7.88 28.3173 8.54667 28.3173 9.4C28.3173 10.2533 28.5507 10.9333 29.0173 11.44C29.4973 11.9333 30.0773 12.18 30.7573 12.18C31.4373 12.18 32.0107 11.9333 32.4773 11.44C32.9573 10.9467 33.1973 10.2733 33.1973 9.42ZM49.6116 9.24C49.6116 9.56 49.5916 9.89333 49.5516 10.24H41.8116C41.8649 10.9333 42.0849 11.4667 42.4716 11.84C42.8716 12.2 43.3582 12.38 43.9316 12.38C44.7849 12.38 45.3782 12.02 45.7116 11.3H49.3516C49.1649 12.0333 48.8249 12.6933 48.3316 13.28C47.8516 13.8667 47.2449 14.3267 46.5116 14.66C45.7782 14.9933 44.9582 15.16 44.0516 15.16C42.9582 15.16 41.9849 14.9267 41.1316 14.46C40.2782 13.9933 39.6116 13.3267 39.1316 12.46C38.6516 11.5933 38.4116 10.58 38.4116 9.42C38.4116 8.26 38.6449 7.24667 39.1116 6.38C39.5916 5.51333 40.2582 4.84667 41.1116 4.38C41.9649 3.91333 42.9449 3.68 44.0516 3.68C45.1316 3.68 46.0916 3.90667 46.9316 4.36C47.7716 4.81333 48.4249 5.46 48.8916 6.3C49.3716 7.14 49.6116 8.12 49.6116 9.24ZM46.1116 8.34C46.1116 7.75333 45.9116 7.28667 45.5116 6.94C45.1116 6.59333 44.6116 6.42 44.0116 6.42C43.4382 6.42 42.9516 6.58667 42.5516 6.92C42.1649 7.25333 41.9249 7.72667 41.8316 8.34H46.1116ZM54.8358 5.7C55.2358 5.08667 55.7358 4.60667 56.3358 4.26C56.9358 3.9 57.6024 3.72 58.3358 3.72V7.34H57.3958C56.5424 7.34 55.9024 7.52667 55.4758 7.9C55.0491 8.26 54.8358 8.9 54.8358 9.82V15H51.4158V3.84H54.8358V5.7Z" fill="#949993"/>
</svg>
