<svg width="48" height="28" viewBox="0 0 48 28" fill="none" xmlns="http://www.w3.org/2000/svg">
<path d="M17.3333 3C17.3333 1.34312 19.125 0 21.3333 0H26.6667C28.875 0 30.6667 1.34312 30.6667 3V7C30.6667 8.65625 28.875 10 26.6667 10H26V12.5H38.6667C41.2417 12.5 43.3333 14.0688 43.3333 16V18H44C46.2083 18 48 19.3438 48 21V25C48 26.6562 46.2083 28 44 28H38.6667C36.4583 28 34.6667 26.6562 34.6667 25V21C34.6667 19.3438 36.4583 18 38.6667 18H39.3333V16C39.3333 15.725 39.0333 15.5 38.6667 15.5H26V18H26.6667C28.875 18 30.6667 19.3438 30.6667 21V25C30.6667 26.6562 28.875 28 26.6667 28H21.3333C19.125 28 17.3333 26.6562 17.3333 25V21C17.3333 19.3438 19.125 18 21.3333 18H22V15.5H9.33333C8.96667 15.5 8.66667 15.725 8.66667 16V18H9.33333C11.5417 18 13.3333 19.3438 13.3333 21V25C13.3333 26.6562 11.5417 28 9.33333 28H4C1.79083 28 0 26.6562 0 25V21C0 19.3438 1.79083 18 4 18H4.66667V16C4.66667 14.0688 6.75583 12.5 9.33333 12.5H22V10H21.3333C19.125 10 17.3333 8.65625 17.3333 7V3Z" fill="#949993"/>
</svg>
